<svg width="20" height="20" viewBox="0 0 20 20" fill="none" xmlns="http://www.w3.org/2000/svg">
<path fill-rule="evenodd" clip-rule="evenodd" d="M6.3335 4.50004H4.50016V3.58337H2.66683V6.33337H17.3335V3.58337H15.5002V4.50004H13.6668V3.58337H6.3335V4.50004ZM17.3335 8.16671H2.66683V17.3334H17.3335V8.16671ZM13.6668 1.75004H6.3335V0.833374H4.50016V1.75004H2.66683C1.65431 1.75004 0.833496 2.57085 0.833496 3.58337V17.3334C0.833496 18.3459 1.65431 19.1667 2.66683 19.1667H17.3335C18.346 19.1667 19.1668 18.3459 19.1668 17.3334V3.58337C19.1668 2.57085 18.346 1.75004 17.3335 1.75004H15.5002V0.833374H13.6668V1.75004ZM5.41683 11.8334V10H7.25016V11.8334H5.41683ZM9.0835 11.8334H10.9168V10H9.0835V11.8334ZM12.7502 11.8334V10H14.5835V11.8334H12.7502ZM5.41683 13.6667V15.5H7.25016V13.6667H5.41683ZM10.9168 15.5H9.0835V13.6667H10.9168V15.5Z" fill="url(#paint0_linear_89269_158)"/>
<defs>
<linearGradient id="paint0_linear_89269_158" x1="0.833496" y1="0.833374" x2="20.116" y2="1.89295" gradientUnits="userSpaceOnUse">
<stop stop-color="#00D2D8"/>
<stop offset="1" stop-color="#005CFF"/>
</linearGradient>
</defs>
</svg>
