<svg width="135" height="37" viewBox="0 0 135 37" fill="none" xmlns="http://www.w3.org/2000/svg">
<path fill-rule="evenodd" clip-rule="evenodd" d="M0 21.9476V14.4353C0 13.9049 0.0553539 13.7127 0.159297 13.5188C0.26324 13.3248 0.415773 13.1727 0.610129 13.069C0.804483 12.9653 0.997266 12.91 1.5289 12.91H9.07234C9.60398 12.91 9.79682 12.9653 9.99116 13.069C10.1855 13.1727 10.3381 13.3248 10.442 13.5188C10.5459 13.7127 10.6013 13.9049 10.6013 14.4353V21.9476C10.6013 22.4779 10.5459 22.6702 10.442 22.8641C10.3381 23.058 10.1855 23.2101 9.99116 23.3139C9.79682 23.4176 9.60398 23.4728 9.07234 23.4728H1.5289C0.997266 23.4728 0.804483 23.4176 0.610129 23.3139C0.415773 23.2101 0.26324 23.058 0.159297 22.8641C0.0553539 22.6702 0 22.4779 0 21.9476Z" fill="#005CFF"/>
<path fill-rule="evenodd" clip-rule="evenodd" d="M0 9.03744V1.52525C0 0.994892 0.0553539 0.802567 0.159297 0.608674C0.26324 0.414781 0.415773 0.262611 0.610129 0.158917C0.804483 0.0552213 0.997266 0 1.5289 0H9.07234C9.60398 0 9.79682 0.0552213 9.99116 0.158917C10.1855 0.262611 10.3381 0.414781 10.442 0.608674C10.5459 0.802567 10.6013 0.994892 10.6013 1.52525V9.03744C10.6013 9.56784 10.5459 9.76017 10.442 9.95408C10.3381 10.1479 10.1855 10.3001 9.99116 10.4038C9.79682 10.5075 9.60398 10.5627 9.07234 10.5627H1.5289C0.997266 10.5627 0.804483 10.5075 0.610129 10.4038C0.415773 10.3001 0.26324 10.1479 0.159297 9.95408C0.0553539 9.76017 0 9.56784 0 9.03744Z" fill="#FFE700"/>
<path fill-rule="evenodd" clip-rule="evenodd" d="M12.957 9.03744V1.52525C12.957 0.994892 13.0124 0.802567 13.1163 0.608674C13.2202 0.414781 13.3728 0.262611 13.5671 0.158917C13.7615 0.0552213 13.9543 0 14.486 0H22.0294C22.561 0 22.7538 0.0552213 22.9482 0.158917C23.1425 0.262611 23.2951 0.414781 23.399 0.608674C23.5029 0.802567 23.5583 0.994892 23.5583 1.52525V9.03744C23.5583 9.56784 23.5029 9.76017 23.399 9.95408C23.2951 10.1479 23.1425 10.3001 22.9482 10.4038C22.7538 10.5075 22.561 10.5627 22.0294 10.5627H14.486C13.9543 10.5627 13.7615 10.5075 13.5671 10.4038C13.3728 10.3001 13.2202 10.1479 13.1163 9.95408C13.0124 9.76017 12.957 9.56784 12.957 9.03744Z" fill="#00DADA"/>
<path d="M18.0841 12.9104C19.1509 12.9104 20.0593 13.1601 20.8093 13.6596C21.5594 14.159 22.1203 14.8689 22.492 15.7895C22.8638 16.7099 23.0108 17.8034 22.9333 19.0699H21.9247L15.1301 19.0703L15.1373 19.1579C15.219 20.0034 15.4642 20.6808 15.8728 21.19C16.3836 21.8266 17.1207 22.1448 18.0841 22.1448C18.7177 22.1448 19.2657 21.9996 19.7279 21.7091C20.1902 21.4185 20.5507 21.0024 20.8093 20.4605L22.7975 21.097L22.7132 21.2835C22.3069 22.1404 21.7175 22.811 20.9451 23.2955C20.1175 23.8144 19.1962 24.074 18.1811 24.074C17.1401 24.074 16.2268 23.8438 15.4412 23.3836C14.6557 22.9233 14.0446 22.2803 13.6083 21.4544C13.1718 20.6286 12.9536 19.6706 12.9536 18.5803C12.9536 17.4248 13.1686 16.4227 13.5985 15.574C14.0285 14.7253 14.6282 14.0692 15.3976 13.6057C16.167 13.1422 17.0625 12.9104 18.0841 12.9104ZM18.1075 14.8804C17.0353 14.8804 16.2295 15.1889 15.69 15.8059L15.592 15.9248C15.276 16.3318 15.0652 16.8459 14.9598 17.4671L14.9535 17.5072H20.9534L20.9529 17.499C20.8563 16.7348 20.63 16.1424 20.274 15.7218C19.7993 15.1609 19.0772 14.8804 18.1075 14.8804ZM34.1296 9.97266V23.7862H32.264L32.2637 22.8328L32.1368 22.9555C31.9826 23.0976 31.8177 23.229 31.6421 23.3497C30.9401 23.8325 30.0709 24.074 29.0344 24.074C28.0248 24.074 27.1538 23.8342 26.4216 23.3545C25.6895 22.8749 25.1244 22.221 24.7266 21.3928C24.3288 20.5646 24.1298 19.6325 24.1298 18.5965C24.1298 17.5541 24.3304 16.622 24.7316 15.8002C25.1328 14.9785 25.7028 14.3293 26.4417 13.8529C27.1806 13.3765 28.0582 13.1383 29.0745 13.1383C30.0976 13.1383 30.9584 13.3765 31.6572 13.8529L31.8283 13.9756C31.8842 14.0178 31.9389 14.0611 31.9924 14.1056L32.0229 14.1332L32.0233 9.97266H34.1296ZM29.2162 15.1004C28.51 15.1004 27.9294 15.2577 27.4744 15.5723C27.0194 15.8869 26.6815 16.3095 26.4608 16.8399C26.2402 17.3704 26.1298 17.9626 26.1298 18.6165C26.1298 19.2765 26.2402 19.8733 26.4608 20.4069C26.6815 20.9405 27.0143 21.3645 27.4591 21.6792C27.9039 21.9937 28.4659 22.1511 29.145 22.1511C29.8444 22.1511 30.4149 21.9999 30.8563 21.6977C31.2977 21.3954 31.6203 20.9791 31.824 20.4485C32.0277 19.918 32.1296 19.3073 32.1296 18.6165C32.1296 17.9256 32.026 17.3149 31.8189 16.7844C31.6118 16.2539 31.2926 15.8406 30.8614 15.5445C30.4302 15.2484 29.8818 15.1004 29.2162 15.1004Z" fill="#1C3749"/>
<path d="M8.74985 26.4245C8.84524 26.4256 8.96387 26.4292 9.10558 26.435C9.28279 26.4424 9.44123 26.4583 9.58096 26.4828C10.2248 26.5807 10.7526 26.7888 11.1644 27.1071C11.5761 27.4253 11.8793 27.8256 12.074 28.3079C12.2686 28.7902 12.3659 29.3275 12.3659 29.92C12.3659 30.5124 12.2674 31.0498 12.0702 31.5321C11.8731 32.0144 11.5687 32.4146 11.1569 32.7329C10.7451 33.0512 10.2198 33.2593 9.58096 33.3572C9.44123 33.3768 9.28156 33.3914 9.10188 33.4012C8.9222 33.411 8.78247 33.416 8.68263 33.416H6.16717V37H4.13086V26.4241L8.74985 26.4245ZM8.59279 28.2896H6.16717V31.5505H8.59279C8.69757 31.5505 8.81235 31.5456 8.93714 31.5358C9.06193 31.526 9.17671 31.5064 9.28156 31.477C9.55602 31.4036 9.76818 31.2799 9.91791 31.1061C10.0676 30.9323 10.1712 30.7389 10.2285 30.5259C10.286 30.3129 10.3147 30.1109 10.3147 29.92C10.3147 29.7291 10.286 29.5271 10.2285 29.314C10.1712 29.1011 10.0676 28.9077 9.91791 28.7339C9.76818 28.5601 9.55602 28.4364 9.28156 28.3629C9.17671 28.3336 9.06193 28.314 8.93714 28.3042C8.81235 28.2944 8.69757 28.2896 8.59279 28.2896ZM19.2553 26.4245C19.3491 26.4256 19.4656 26.4292 19.6047 26.435C19.7787 26.4424 19.9344 26.4583 20.0716 26.4828C20.704 26.5807 21.2223 26.7888 21.6267 27.1071C22.0312 27.4253 22.3289 27.8256 22.5201 28.3079C22.7113 28.7902 22.8068 29.3275 22.8068 29.92C22.8068 30.8062 22.5863 31.5639 22.1451 32.1931L22.0536 32.3157C21.8005 32.6341 21.4763 32.8839 21.081 33.0652L21.0414 33.082L22.9539 37H20.6893L18.9504 33.4167L16.7188 33.416V37H14.7188V26.4241L19.2553 26.4245ZM19.1011 28.2896H16.7188V31.5505H19.1011C19.204 31.5505 19.3168 31.5456 19.4393 31.5358C19.5618 31.526 19.6746 31.5064 19.7776 31.477C20.0472 31.4036 20.2555 31.2799 20.4025 31.1061C20.5496 30.9323 20.6513 30.7389 20.7076 30.5259C20.764 30.3129 20.7922 30.1109 20.7922 29.92C20.7922 29.7291 20.764 29.5271 20.7076 29.314C20.6513 29.1011 20.5496 28.9077 20.4025 28.7339C20.2555 28.5601 20.0472 28.4364 19.7776 28.3629C19.6746 28.3336 19.5618 28.314 19.4393 28.3042C19.3168 28.2944 19.204 28.2896 19.1011 28.2896ZM28.8361 26.4241C29.9283 26.4241 30.87 26.645 31.6614 27.0868C32.4527 27.5287 33.062 28.1468 33.4893 28.9411C33.9165 29.7355 34.1301 30.6591 34.1301 31.7121C34.1301 32.7649 33.9165 33.6885 33.4893 34.4829C33.062 35.2773 32.4527 35.8955 31.6614 36.3373C30.87 36.7791 29.9283 37 28.8361 37C27.744 37 26.8022 36.7791 26.0109 36.3373C25.2196 35.8955 24.6103 35.2773 24.183 34.4829C23.7558 33.6885 23.5422 32.7649 23.5422 31.7121C23.5422 30.6591 23.7558 29.7355 24.183 28.9411C24.6103 28.1468 25.2196 27.5287 26.0109 27.0868C26.8022 26.645 27.744 26.4241 28.8361 26.4241ZM28.8361 28.229C28.1435 28.2196 27.567 28.3583 27.1069 28.645C26.6467 28.9317 26.3016 29.3383 26.0716 29.8648C25.8415 30.3912 25.7265 31.007 25.7265 31.7121C25.7265 32.4171 25.8415 33.0282 26.0716 33.5452C26.3016 34.0622 26.6467 34.4642 27.1069 34.7509C27.567 35.0376 28.1435 35.1857 28.8361 35.1951C29.5289 35.2044 30.1053 35.0658 30.5654 34.7791C31.0255 34.4923 31.3706 34.0857 31.6007 33.5593C31.8307 33.0329 31.9458 32.4171 31.9458 31.7121C31.9458 31.007 31.8307 30.3959 31.6007 29.8788C31.3706 29.3618 31.0255 28.9599 30.5654 28.6732C30.1053 28.3865 29.5289 28.2384 28.8361 28.229Z" fill="#1C3749"/>
<path d="M47.8726 9.54779L49.943 3.53149H50.757L52.8274 9.54779H52.1887L50.2227 3.87409H50.4648L48.5112 9.54779H47.8726ZM48.7951 8.08972V7.51312H51.9007V8.08972H48.7951Z" fill="#1C3749"/>
<path d="M53.8315 9.54779V3.53149H54.4452V6.37253L57.1877 3.53149H57.9724L55.1715 6.4352L58.202 9.54779H57.4006L54.4452 6.53965V9.54779H53.8315Z" fill="#1C3749"/>
<path d="M58.6216 9.54779L60.692 3.53149H61.506L63.5764 9.54779H62.9377L60.9717 3.87409H61.2138L59.2603 9.54779H58.6216ZM59.5441 8.08972V7.51312H62.6497V8.08972H59.5441Z" fill="#1C3749"/>
<path d="M64.603 10.5506V8.95874C64.8368 8.95874 65.0246 8.90022 65.1666 8.78324C65.3085 8.66346 65.417 8.50475 65.4922 8.30697C65.5673 8.1092 65.6244 7.88779 65.6633 7.64266C65.7023 7.3948 65.7357 7.14412 65.7635 6.89064C65.8025 6.52018 65.833 6.16226 65.8553 5.81688C65.8804 5.4715 65.9012 5.11359 65.9179 4.74314C65.9374 4.37269 65.9597 3.96742 65.9848 3.52734L69.6918 3.53152V8.95874H70.1214V10.5506H69.5122V9.54781H65.2166V10.5506H64.603ZM65.776 8.95874H69.0778V4.12062L66.5566 4.11644C66.5399 4.45625 66.5232 4.78492 66.5065 5.10244C66.4898 5.41998 66.4703 5.74029 66.4481 6.06338C66.4258 6.38648 66.3966 6.72351 66.3604 7.07443C66.3298 7.3948 66.2936 7.67467 66.2519 7.91424C66.2101 8.15375 66.1517 8.35851 66.0766 8.52839C66.0042 8.69834 65.904 8.84177 65.776 8.95874Z" fill="#1C3749"/>
<path d="M71.2881 9.54779V3.53149H75.0448V4.12059H71.9021V6.20123H74.5439V6.79033H71.9021V8.95872H75.0448V9.54779H71.2881Z" fill="#1C3749"/>
<path d="M76.3003 9.54779V3.53149H76.8636L79.2264 8.59107L81.5763 3.53149H82.1478V9.54361H81.5639V4.90188L79.4224 9.54779H79.0256L76.8883 4.90188V9.54779H76.3003Z" fill="#1C3749"/>
<path d="M88.116 9.54779V3.53149H87.4979L84.1879 8.46155V3.53149H83.5698V9.54779H84.1879L87.4979 4.6136V9.54779H88.116Z" fill="#1C3749"/>
<path d="M93.6305 9.54779V3.53149H91.3102C91.2512 3.53149 91.1848 3.53428 91.1094 3.53985C91.0374 3.54264 90.9634 3.551 90.888 3.56492C90.5735 3.61227 90.3069 3.72229 90.0869 3.89498C89.8697 4.06489 89.7039 4.27936 89.5901 4.5384C89.4791 4.79743 89.4229 5.08432 89.4229 5.39906C89.4229 5.85307 89.5428 6.24719 89.782 6.58143C90.0212 6.9157 90.3638 7.12594 90.8092 7.21229L91.0217 7.26245H93.0172V9.54779H93.6305ZM89.991 9.54779L91.1765 7.09949L90.5879 6.8739L89.2852 9.54779H89.991ZM93.0172 6.67753H91.3266C91.2766 6.67753 91.2183 6.67474 91.1512 6.66917C91.0847 6.6636 91.0189 6.65385 90.9552 6.63992C90.7489 6.59536 90.5796 6.51041 90.446 6.38507C90.3151 6.25973 90.2165 6.11071 90.1493 5.93802C90.0856 5.76533 90.0534 5.58568 90.0534 5.39906C90.0534 5.21244 90.0856 5.03279 90.1493 4.8601C90.2165 4.68462 90.3151 4.53422 90.446 4.40888C90.5796 4.28353 90.7489 4.19859 90.9552 4.15402C91.0189 4.14009 91.0847 4.13174 91.1512 4.12895C91.2183 4.12338 91.2766 4.12059 91.3266 4.12059H93.0172V6.67753Z" fill="#1C3749"/>
<path d="M48.0103 22.4855V20.8937C48.244 20.8937 48.4318 20.8352 48.5738 20.7182C48.7157 20.5984 48.8242 20.4397 48.8994 20.2419C48.9745 20.0442 49.0316 19.8227 49.0705 19.5777C49.1095 19.3297 49.1429 19.079 49.1707 18.8256C49.2097 18.4552 49.2403 18.0972 49.2625 17.7519C49.2876 17.4065 49.3084 17.0486 49.3252 16.6781C49.3446 16.3076 49.3669 15.9024 49.3919 15.4623L53.0987 15.4665V20.8937H53.5286V22.4855H52.9192V21.4828H48.6239V22.4855H48.0103ZM49.1832 20.8937H52.4851V16.0556L49.9638 16.0514C49.9471 16.3912 49.9304 16.7199 49.9138 17.0374C49.897 17.355 49.8776 17.6753 49.8553 17.9984C49.833 18.3215 49.8038 18.6585 49.7677 19.0094C49.737 19.3297 49.7008 19.6097 49.6591 19.8492C49.6174 20.0887 49.5589 20.2934 49.4838 20.4634C49.4114 20.6333 49.3113 20.7767 49.1832 20.8937Z" fill="#1C3749"/>
<path d="M57.1299 21.6082C56.5316 21.6082 56.0264 21.4759 55.6146 21.2113C55.2027 20.9439 54.8911 20.5749 54.6796 20.1041C54.468 19.6334 54.3623 19.0903 54.3623 18.4747C54.3623 17.8591 54.468 17.316 54.6796 16.8453C54.8911 16.3746 55.2027 16.0069 55.6146 15.7423C56.0264 15.4749 56.5316 15.3412 57.1299 15.3412C57.7309 15.3412 58.2361 15.4749 58.6451 15.7423C59.0569 16.0069 59.3686 16.3746 59.5802 16.8453C59.7944 17.316 59.9016 17.8591 59.9016 18.4747C59.9016 19.0903 59.7944 19.6334 59.5802 20.1041C59.3686 20.5749 59.0569 20.9439 58.6451 21.2113C58.2361 21.4759 57.7309 21.6082 57.1299 21.6082ZM57.1299 21.0191C57.6002 21.0191 57.9925 20.9119 58.307 20.6974C58.6215 20.4829 58.8566 20.1849 59.0124 19.8033C59.171 19.4189 59.2504 18.976 59.2504 18.4747C59.2504 17.9733 59.171 17.5319 59.0124 17.1503C58.8566 16.7687 58.6215 16.4707 58.307 16.2562C57.9925 16.0417 57.6002 15.9331 57.1299 15.9303C56.6596 15.9303 56.2685 16.0376 55.9569 16.252C55.6452 16.4665 55.41 16.7659 55.2515 17.1503C55.0956 17.5319 55.0163 17.9733 55.0135 18.4747C55.0107 18.976 55.0873 19.4175 55.2431 19.7991C55.4017 20.178 55.6382 20.476 55.9527 20.6932C56.2672 20.9077 56.6596 21.0163 57.1299 21.0191Z" fill="#1C3749"/>
<path d="M60.9878 21.4828V15.4664H65.592V21.4828H64.9784V16.0556H61.6014V21.4828H60.9878Z" fill="#1C3749"/>
<path d="M69.444 21.6082C68.8457 21.6082 68.3404 21.4759 67.9285 21.2113C67.5167 20.9439 67.205 20.5749 66.9935 20.1041C66.782 19.6334 66.6763 19.0903 66.6763 18.4747C66.6763 17.8591 66.782 17.316 66.9935 16.8453C67.205 16.3746 67.5167 16.0069 67.9285 15.7423C68.3404 15.4749 68.8457 15.3412 69.444 15.3412C70.045 15.3412 70.55 15.4749 70.9591 15.7423C71.371 16.0069 71.6828 16.3746 71.8938 16.8453C72.1083 17.316 72.2152 17.8591 72.2152 18.4747C72.2152 19.0903 72.1083 19.6334 71.8938 20.1041C71.6828 20.5749 71.371 20.9439 70.9591 21.2113C70.55 21.4759 70.045 21.6082 69.444 21.6082ZM69.444 21.0191C69.9141 21.0191 70.3067 20.9119 70.6206 20.6974C70.9351 20.4829 71.1702 20.1849 71.3264 19.8033C71.4847 19.4189 71.5642 18.976 71.5642 18.4747C71.5642 17.9733 71.4847 17.5319 71.3264 17.1503C71.1702 16.7687 70.9351 16.4707 70.6206 16.2562C70.3067 16.0417 69.9141 15.9331 69.444 15.9303C68.9732 15.9303 68.5826 16.0376 68.2708 16.252C67.9591 16.4665 67.724 16.7659 67.5653 17.1503C67.4095 17.5319 67.3302 17.9733 67.3274 18.4747C67.3247 18.976 67.4012 19.4175 67.5571 19.7991C67.7156 20.178 67.9522 20.476 68.2667 20.6932C68.5812 20.9077 68.9732 21.0163 69.444 21.0191Z" fill="#1C3749"/>
<path d="M72.7217 21.4828V20.9354C72.8745 20.9493 73.0013 20.9438 73.1013 20.9187C73.2014 20.8909 73.2822 20.8296 73.3432 20.7349C73.4076 20.6402 73.4632 20.4995 73.5104 20.3129C73.5577 20.1235 73.605 19.877 73.6523 19.5734C73.7051 19.2447 73.7496 18.9175 73.7859 18.5916C73.825 18.2657 73.8586 17.9356 73.886 17.6014C73.9168 17.2644 73.9415 16.919 73.9613 16.5653C73.9805 16.2115 73.999 15.8453 74.0155 15.4664H77.8099V21.4828H77.1966V16.0556H74.6083C74.5884 16.3424 74.5692 16.6363 74.55 16.9371C74.5329 17.2379 74.5109 17.5457 74.4828 17.8605C74.4582 18.1752 74.426 18.4997 74.3869 18.8339C74.3506 19.1654 74.3047 19.5079 74.2492 19.8617C74.2046 20.1291 74.1519 20.377 74.0909 20.6054C74.0319 20.8338 73.9483 21.026 73.8401 21.1819C73.7345 21.3379 73.5913 21.4452 73.4104 21.5037C73.2322 21.5621 73.0026 21.5552 72.7217 21.4828Z" fill="#1C3749"/>
<path d="M79.2271 21.4828V15.4664H79.8404V18.1779H83.1633V15.4664H83.7725V21.4828H83.1633V18.7671H79.8404V21.4828H79.2271Z" fill="#1C3749"/>
<path d="M89.7378 21.4828V15.4664H89.1204L85.8098 20.3965V15.4664H85.1924V21.4828H85.8098L89.1204 16.5486V21.4828H89.7378Z" fill="#1C3749"/>
<path d="M92.7564 21.4828V16.0556H90.6567V15.4664H95.4701V16.0556H93.3704V21.4828H92.7564Z" fill="#1C3749"/>
<path d="M96.3901 21.4828V15.4664H100.147V16.0556H97.0035V18.1362H99.6459V18.7253H97.0035V20.8936H100.147V21.4828H96.3901Z" fill="#1C3749"/>
<path d="M100.984 21.4828V20.9354C101.137 20.9493 101.264 20.9438 101.364 20.9187C101.465 20.8909 101.545 20.8296 101.607 20.7349C101.67 20.6402 101.726 20.4995 101.773 20.3129C101.82 20.1235 101.868 19.877 101.916 19.5734C101.968 19.2447 102.013 18.9175 102.049 18.5916C102.088 18.2657 102.121 17.9356 102.149 17.6014C102.179 17.2644 102.205 16.919 102.224 16.5653C102.244 16.2115 102.262 15.8453 102.278 15.4664H106.073V21.4828H105.459V16.0556H102.871C102.852 16.3424 102.833 16.6363 102.813 16.9371C102.796 17.2379 102.774 17.5457 102.746 17.8605C102.721 18.1752 102.689 18.4997 102.65 18.8339C102.614 19.1654 102.568 19.5079 102.513 19.8617C102.468 20.1291 102.415 20.377 102.354 20.6054C102.295 20.8338 102.212 21.026 102.103 21.1819C101.997 21.3379 101.854 21.4452 101.673 21.5037C101.495 21.5621 101.265 21.5552 100.984 21.4828Z" fill="#1C3749"/>
<path d="M107.485 21.4828V15.4664H108.099V17.7518H109.806C109.865 17.7518 109.93 17.7546 110.002 17.7602C110.078 17.7629 110.154 17.7713 110.232 17.7852C110.544 17.8326 110.808 17.9426 111.025 18.1153C111.245 18.2852 111.411 18.4997 111.522 18.7587C111.636 19.0178 111.693 19.3032 111.693 19.6152C111.693 19.9299 111.636 20.2169 111.522 20.4759C111.411 20.7349 111.245 20.9508 111.025 21.1235C110.808 21.2934 110.544 21.402 110.232 21.4493C110.154 21.4605 110.078 21.4689 110.002 21.4744C109.93 21.48 109.865 21.4828 109.806 21.4828H107.485ZM108.099 20.8936H109.789C109.843 20.8936 109.902 20.8909 109.969 20.8853C110.036 20.8797 110.101 20.8714 110.165 20.8603C110.368 20.8157 110.537 20.7307 110.671 20.6054C110.804 20.4801 110.903 20.331 110.967 20.1583C111.031 19.9828 111.063 19.8018 111.063 19.6152C111.063 19.4286 111.031 19.2489 110.967 19.0762C110.903 18.9035 110.804 18.7545 110.671 18.6292C110.537 18.5039 110.368 18.4189 110.165 18.3743C110.101 18.3604 110.036 18.3506 109.969 18.3451C109.902 18.3395 109.843 18.3367 109.789 18.3367H108.099V20.8936Z" fill="#1C3749"/>
<path d="M112.86 21.4828V15.4664H113.473V18.1779H116.796V15.4664H117.405V21.4828H116.796V18.7671H113.473V21.4828H112.86Z" fill="#1C3749"/>
<path d="M121.26 21.6082C120.661 21.6082 120.156 21.4759 119.744 21.2113C119.332 20.9439 119.021 20.5749 118.809 20.1041C118.597 19.6334 118.492 19.0903 118.492 18.4747C118.492 17.8591 118.597 17.316 118.809 16.8453C119.021 16.3746 119.332 16.0069 119.744 15.7423C120.156 15.4749 120.661 15.3412 121.26 15.3412C121.861 15.3412 122.366 15.4749 122.775 15.7423C123.187 16.0069 123.498 16.3746 123.709 16.8453C123.924 17.316 124.031 17.8591 124.031 18.4747C124.031 19.0903 123.924 19.6334 123.709 20.1041C123.498 20.5749 123.187 20.9439 122.775 21.2113C122.366 21.4759 121.861 21.6082 121.26 21.6082ZM121.26 21.0191C121.73 21.0191 122.122 20.9119 122.436 20.6974C122.751 20.4829 122.986 20.1849 123.142 19.8033C123.3 19.4189 123.38 18.976 123.38 18.4747C123.38 17.9733 123.3 17.5319 123.142 17.1503C122.986 16.7687 122.751 16.4707 122.436 16.2562C122.122 16.0417 121.73 15.9331 121.26 15.9303C120.789 15.9303 120.398 16.0376 120.086 16.252C119.775 16.4665 119.539 16.7659 119.381 17.1503C119.225 17.5319 119.145 17.9733 119.143 18.4747C119.14 18.976 119.217 19.4175 119.372 19.7991C119.531 20.178 119.768 20.476 120.082 20.6932C120.397 20.9077 120.789 21.0163 121.26 21.0191Z" fill="#1C3749"/>
<path d="M125.118 21.4828V15.4664H128.874V16.0556H125.731V21.4828H125.118Z" fill="#1C3749"/>
<path d="M132.228 21.6082C131.63 21.6082 131.125 21.4759 130.713 21.2113C130.301 20.9439 129.989 20.5749 129.778 20.1041C129.566 19.6334 129.461 19.0903 129.461 18.4747C129.461 17.8591 129.566 17.316 129.778 16.8453C129.989 16.3746 130.301 16.0069 130.713 15.7423C131.125 15.4749 131.63 15.3412 132.228 15.3412C132.83 15.3412 133.335 15.4749 133.744 15.7423C134.156 16.0069 134.467 16.3746 134.679 16.8453C134.893 17.316 135 17.8591 135 18.4747C135 19.0903 134.893 19.6334 134.679 20.1041C134.467 20.5749 134.156 20.9439 133.744 21.2113C133.335 21.4759 132.83 21.6082 132.228 21.6082ZM132.228 21.0191C132.699 21.0191 133.091 20.9119 133.405 20.6974C133.72 20.4829 133.955 20.1849 134.111 19.8033C134.27 19.4189 134.349 18.976 134.349 18.4747C134.349 17.9733 134.27 17.5319 134.111 17.1503C133.955 16.7687 133.72 16.4707 133.405 16.2562C133.091 16.0417 132.699 15.9331 132.228 15.9303C131.758 15.9303 131.367 16.0376 131.056 16.252C130.744 16.4665 130.509 16.7659 130.35 17.1503C130.194 17.5319 130.115 17.9733 130.112 18.4747C130.109 18.976 130.186 19.4175 130.342 19.7991C130.5 20.178 130.737 20.476 131.051 20.6932C131.365 20.9077 131.758 21.0163 132.228 21.0191Z" fill="#1C3749"/>
<path d="M50.7236 33.5436C50.1253 33.5436 49.6202 33.4113 49.2083 33.1466C48.7965 32.8793 48.4848 32.5102 48.2733 32.0395C48.0618 31.5688 47.9561 31.0256 47.9561 30.4101C47.9561 29.7945 48.0618 29.2514 48.2733 28.7807C48.4848 28.3099 48.7965 27.9423 49.2083 27.6777C49.6202 27.4103 50.1253 27.2766 50.7236 27.2766C51.3247 27.2766 51.8298 27.4103 52.2388 27.6777C52.6507 27.9423 52.9624 28.3099 53.1739 28.7807C53.3882 29.2514 53.4953 29.7945 53.4953 30.4101C53.4953 31.0256 53.3882 31.5688 53.1739 32.0395C52.9624 32.5102 52.6507 32.8793 52.2388 33.1466C51.8298 33.4113 51.3247 33.5436 50.7236 33.5436ZM50.7236 32.9545C51.1939 32.9545 51.5863 32.8472 51.9007 32.6328C52.2152 32.4183 52.4503 32.1203 52.6062 31.7387C52.7648 31.3543 52.8442 30.9115 52.8442 30.4101C52.8442 29.9087 52.7648 29.4672 52.6062 29.0857C52.4503 28.704 52.2152 28.406 51.9007 28.1916C51.5863 27.9771 51.1939 27.8685 50.7236 27.8657C50.2533 27.8657 49.8623 27.9729 49.5506 28.1874C49.239 28.4018 49.0038 28.7013 48.8452 29.0857C48.6894 29.4672 48.61 29.9087 48.6073 30.4101C48.6045 30.9115 48.681 31.3529 48.8368 31.7345C48.9955 32.1133 49.232 32.4113 49.5465 32.6286C49.8609 32.8431 50.2533 32.9517 50.7236 32.9545Z" fill="#1C3749"/>
<path d="M54.582 33.4183V27.402H58.2929V27.991H55.1956V29.7417H56.9029C56.9613 29.7417 57.0267 29.7444 57.0991 29.75C57.1742 29.7528 57.2493 29.7598 57.3245 29.7709C57.6334 29.8127 57.8964 29.9185 58.1134 30.0884C58.3332 30.2583 58.5003 30.4728 58.6143 30.7318C58.7312 30.9909 58.7896 31.2736 58.7896 31.58C58.7896 31.8864 58.7312 32.1691 58.6143 32.4281C58.5003 32.6871 58.3332 32.9016 58.1134 33.0715C57.8964 33.2414 57.6334 33.3473 57.3245 33.3891C57.2493 33.3974 57.1742 33.4043 57.0991 33.4099C57.0267 33.4155 56.9613 33.4183 56.9029 33.4183H54.582ZM55.1956 32.8292H56.8862C56.9363 32.8292 56.9947 32.8264 57.0615 32.8208C57.1283 32.8153 57.1937 32.8069 57.2577 32.7957C57.5666 32.7345 57.7934 32.5869 57.9381 32.3529C58.0856 32.1162 58.1593 31.8585 58.1593 31.58C58.1593 31.2986 58.0856 31.041 57.9381 30.8071C57.7934 30.573 57.5666 30.4254 57.2577 30.3642C57.1937 30.3503 57.1283 30.3419 57.0615 30.3391C56.9947 30.3335 56.9363 30.3307 56.8862 30.3307H55.1956V32.8292Z" fill="#1C3749"/>
<path d="M59.8706 33.4183V27.402H62.1914C62.2499 27.402 62.3153 27.4047 62.3876 27.4103C62.4628 27.4131 62.5379 27.4214 62.6131 27.4354C62.9275 27.4828 63.1933 27.5928 63.4103 27.7654C63.6302 27.9353 63.7958 28.1498 63.9071 28.4089C64.0212 28.6679 64.0782 28.9548 64.0782 29.2695C64.0782 29.5815 64.0212 29.867 63.9071 30.126C63.793 30.3851 63.626 30.6009 63.4062 30.7736C63.1891 30.9435 62.9248 31.0521 62.6131 31.0995C62.5379 31.1106 62.4628 31.119 62.3876 31.1246C62.3153 31.1301 62.2499 31.1329 62.1914 31.1329H60.4842V33.4183H59.8706ZM60.4842 30.548H62.1748C62.2249 30.548 62.2833 30.5452 62.3501 30.5397C62.4169 30.534 62.4823 30.5243 62.5463 30.5104C62.7522 30.4659 62.9206 30.3809 63.0513 30.2555C63.185 30.1302 63.2837 29.9812 63.3477 29.8085C63.4145 29.6358 63.4479 29.4562 63.4479 29.2695C63.4479 29.0829 63.4145 28.9033 63.3477 28.7306C63.2837 28.5551 63.185 28.4047 63.0513 28.2793C62.9206 28.154 62.7522 28.069 62.5463 28.0245C62.4823 28.0106 62.4169 28.0022 62.3501 27.9994C62.2833 27.9939 62.2249 27.991 62.1748 27.991H60.4842V30.548Z" fill="#1C3749"/>
<path d="M64.5791 33.4183L66.6495 27.402H67.4635L69.5338 33.4183H68.8951L66.9292 27.7445H67.1713L65.2177 33.4183H64.5791ZM65.5016 31.9602V31.3836H68.6073V31.9602H65.5016Z" fill="#1C3749"/>
<path d="M72.2995 33.5436C71.8904 33.5436 71.5354 33.4837 71.2346 33.3639C70.9372 33.2442 70.6925 33.0868 70.5 32.8918C70.3081 32.6941 70.1649 32.481 70.0703 32.2526L70.6295 31.9267C70.6967 32.1161 70.8022 32.2888 70.9468 32.4448C71.0914 32.6008 71.2778 32.7247 71.506 32.8166C71.7342 32.9085 72.0055 32.9545 72.3201 32.9545C72.6456 32.9545 72.9211 32.903 73.1465 32.7999C73.3747 32.6968 73.5474 32.552 73.6646 32.3654C73.7811 32.1788 73.8393 31.9615 73.8393 31.7137C73.8393 31.4406 73.7742 31.229 73.6434 31.0785C73.5125 30.9282 73.337 30.8223 73.1177 30.7611C72.8978 30.697 72.6524 30.6608 72.3831 30.6524C72.1796 30.6441 72.035 30.6385 71.9487 30.6357C71.8623 30.6329 71.8054 30.6315 71.7773 30.6315C71.7499 30.6315 71.7232 30.6315 71.6985 30.6315V30.0382C71.7177 30.0382 71.7691 30.0382 71.8527 30.0382C71.9363 30.0382 72.0254 30.0382 72.12 30.0382C72.2145 30.0355 72.2899 30.0327 72.3454 30.0299C72.7429 30.0104 73.0561 29.906 73.2843 29.7165C73.5125 29.5271 73.6269 29.2709 73.6269 28.9478C73.6269 28.6052 73.5056 28.3392 73.2637 28.1498C73.0246 27.9604 72.7141 27.8657 72.3324 27.8657C71.974 27.8657 71.6704 27.952 71.4231 28.1247C71.1777 28.2947 70.9776 28.5231 70.8214 28.8099L70.3204 28.4381C70.5103 28.0983 70.7768 27.8198 71.1222 27.6025C71.4676 27.3852 71.8767 27.2766 72.3496 27.2766C72.6024 27.2766 72.845 27.3114 73.0759 27.381C73.3096 27.4507 73.5152 27.5537 73.6934 27.6902C73.8743 27.8267 74.0162 27.9994 74.1196 28.2083C74.2252 28.4144 74.2779 28.6567 74.2779 28.9353C74.2779 29.2611 74.2053 29.5452 74.0607 29.7875C73.9188 30.0299 73.7352 30.2123 73.5097 30.3349C73.816 30.4268 74.0552 30.5884 74.2279 30.8195C74.4033 31.0507 74.4911 31.3529 74.4911 31.7261C74.4911 32.0939 74.4006 32.4141 74.2197 32.6871C74.0388 32.96 73.7825 33.1717 73.4515 33.3221C73.1232 33.4698 72.7388 33.5436 72.2995 33.5436Z" fill="#1C3749"/>
<path d="M78.0413 33.5436C77.4423 33.5436 76.9373 33.4113 76.5254 33.1466C76.1136 32.8793 75.8025 32.5102 75.5907 32.0395C75.379 31.5688 75.2734 31.0256 75.2734 30.4101C75.2734 29.7945 75.379 29.2514 75.5907 28.7807C75.8025 28.3099 76.1136 27.9423 76.5254 27.6777C76.9373 27.4103 77.4423 27.2766 78.0413 27.2766C78.6423 27.2766 79.1473 27.4103 79.5564 27.6777C79.9683 27.9423 80.2794 28.3099 80.4911 28.7807C80.7056 29.2514 80.8125 29.7945 80.8125 30.4101C80.8125 31.0256 80.7056 31.5688 80.4911 32.0395C80.2794 32.5102 79.9683 32.8793 79.5564 33.1466C79.1473 33.4113 78.6423 33.5436 78.0413 33.5436ZM78.0413 32.9545C78.5114 32.9545 78.9034 32.8472 79.2179 32.6328C79.5324 32.4183 79.7675 32.1203 79.9237 31.7387C80.082 31.3543 80.1615 30.9115 80.1615 30.4101C80.1615 29.9087 80.082 29.4672 79.9237 29.0857C79.7675 28.704 79.5324 28.406 79.2179 28.1916C78.9034 27.9771 78.5114 27.8685 78.0413 27.8657C77.5705 27.8657 77.1799 27.9729 76.8681 28.1874C76.5563 28.4018 76.3212 28.7013 76.1622 29.0857C76.0067 29.4672 75.9272 29.9087 75.9245 30.4101C75.9217 30.9115 75.9985 31.3529 76.154 31.7345C76.313 32.1133 76.5494 32.4113 76.864 32.6286C77.1785 32.8431 77.5705 32.9517 78.0413 32.9545Z" fill="#1C3749"/>
<path d="M81.8984 33.4183V27.402H84.2195C84.5566 27.402 84.8499 27.4716 85.1008 27.6109C85.3509 27.7502 85.5455 27.9381 85.6846 28.1749C85.8237 28.4089 85.8936 28.6679 85.8936 28.952C85.8936 29.2751 85.8073 29.5634 85.6346 29.8168C85.4619 30.0675 85.231 30.2416 84.9418 30.3391L84.9335 30.1344C85.3228 30.2458 85.6291 30.4408 85.8518 30.7193C86.0745 30.9978 86.1856 31.3349 86.1856 31.7303C86.1856 32.0785 86.1122 32.3794 85.9642 32.6328C85.8169 32.8835 85.6099 33.077 85.3427 33.2136C85.0754 33.3501 84.765 33.4183 84.4114 33.4183H81.8984ZM82.5166 32.8292H84.2613C84.5066 32.8292 84.7259 32.786 84.9212 32.6997C85.1158 32.6105 85.2687 32.4852 85.3804 32.3237C85.4941 32.1621 85.551 31.9671 85.551 31.7387C85.551 31.5159 85.4996 31.3153 85.3968 31.1371C85.294 30.9589 85.1535 30.8168 84.9753 30.7109C84.7999 30.6023 84.5998 30.548 84.3744 30.548H82.5166V32.8292ZM82.5166 29.9673H84.2154C84.4072 29.9673 84.5827 29.9241 84.7417 29.8377C84.9 29.7486 85.0254 29.6274 85.1172 29.4743C85.2118 29.321 85.2591 29.1442 85.2591 28.9436C85.2591 28.6595 85.1604 28.4284 84.963 28.2501C84.7677 28.0718 84.519 27.9827 84.2154 27.9827H82.5166V29.9673Z" fill="#1C3749"/>
<path d="M86.8516 33.4183L88.9225 27.402H89.7359L91.8068 33.4183H91.1681L89.2021 27.7445H89.444L87.4902 33.4183H86.8516ZM87.774 31.9602V31.3836H90.8796V31.9602H87.774Z" fill="#1C3749"/>
<path d="M92.8105 33.4183V27.402H93.4239V30.1135H96.7468V27.402H97.356V33.4183H96.7468V30.7026H93.4239V33.4183H92.8105Z" fill="#1C3749"/>
<path d="M103.322 33.4183V27.402H102.704L99.394 32.332V27.402H98.7759V33.4183H99.394L102.704 28.484V33.4183H103.322Z" fill="#1C3749"/>
<path d="M108.837 33.4183V27.402H106.516C106.457 27.402 106.391 27.4047 106.315 27.4103C106.243 27.4131 106.169 27.4214 106.094 27.4354C105.78 27.4828 105.513 27.5928 105.293 27.7654C105.076 27.9353 104.91 28.1498 104.796 28.4089C104.685 28.6679 104.629 28.9548 104.629 29.2695C104.629 29.7236 104.749 30.1177 104.988 30.4519C105.227 30.7862 105.57 30.9964 106.015 31.0828L106.228 31.1329H108.223V33.4183H108.837ZM105.197 33.4183L106.383 30.97L105.794 30.7444L104.491 33.4183H105.197ZM108.223 30.548H106.533C106.483 30.548 106.424 30.5452 106.357 30.5397C106.291 30.534 106.225 30.5243 106.161 30.5104C105.955 30.4659 105.786 30.3809 105.652 30.2555C105.521 30.1302 105.423 29.9812 105.355 29.8085C105.292 29.6358 105.259 29.4562 105.259 29.2695C105.259 29.0829 105.292 28.9033 105.355 28.7306C105.423 28.5551 105.521 28.4047 105.652 28.2793C105.786 28.154 105.955 28.069 106.161 28.0245C106.225 28.0106 106.291 28.0022 106.357 27.9994C106.424 27.9939 106.483 27.991 106.533 27.991H108.223V30.548Z" fill="#1C3749"/>
</svg>
