<svg width="21" height="21" viewBox="0 0 21 21" fill="none" xmlns="http://www.w3.org/2000/svg">
<path fill-rule="evenodd" clip-rule="evenodd" d="M9.8565 6.33802C10.3746 5.63981 10.5604 4.90396 9.9744 4.25443C8.65949 2.41445 7.77515 1.27661 7.22044 0.728657C6.16589 -0.313073 4.43112 -0.172163 3.51779 0.727767C3.02723 1.21113 2.86116 1.37712 2.35747 1.88873C-0.448186 4.69589 1.26285 10.6302 5.81139 15.1832C10.3589 19.7352 16.2926 21.4471 19.1041 18.634C19.5689 18.1859 19.9624 17.7922 20.2728 17.4641C21.1678 16.5181 21.3037 14.8599 20.2669 13.7826C19.7354 13.2303 18.6503 12.3886 16.7329 11.0171C16.1457 10.492 15.4494 10.6058 14.811 11.0246C14.504 11.2261 14.2805 11.4298 13.8585 11.8522L13.0923 12.6189C12.9914 12.7199 11.621 12.0336 10.2907 10.702C8.95972 9.36966 8.2739 7.99918 8.37435 7.89874L9.1411 7.13154C9.275 6.99754 9.339 6.93266 9.4211 6.84639C9.5921 6.66666 9.7337 6.50356 9.8565 6.33802ZM14.5057 14.0331L15.2721 13.2663C15.5044 13.0338 15.6549 12.8909 15.7773 12.7924C17.457 13.9986 18.4297 14.757 18.8271 15.1699C19.0656 15.4177 19.0286 15.87 18.8212 16.0892C18.5342 16.3925 18.1613 16.7656 17.7037 17.207C15.8857 19.0258 11.0959 17.6438 7.22513 13.7693C3.35315 9.89346 1.97188 5.10291 3.7762 3.29761C4.27786 2.7881 4.4368 2.62924 4.92035 2.15277C5.10166 1.97413 5.59552 1.93401 5.81608 2.15188C6.24314 2.57376 7.03534 3.58811 8.20071 5.21145C8.14038 5.28635 8.06503 5.37099 7.97333 5.46736C7.90603 5.5381 7.84996 5.59494 7.72738 5.71764L6.96136 6.48408C5.65821 7.78712 6.76802 10.0049 8.87697 12.1159C10.9845 14.2255 13.203 15.3365 14.5057 14.0331ZM12.655 0.0695571C16.9783 0.593597 20.4064 4.02165 20.9304 8.34496L18.955 8.67416C18.5736 5.19184 15.8081 2.42642 12.3258 2.045L12.655 0.0695571ZM11.9963 4.02214C14.6378 4.2584 16.7416 6.36221 16.9778 9.00376L14.9961 9.33406C14.912 7.53314 13.4668 6.08802 11.666 6.00392L11.9963 4.02214Z" fill="url(#paint0_linear_89364_53)"/>
<defs>
<linearGradient id="paint0_linear_89364_53" x1="0.995118" y1="-0.000863244" x2="22.0306" y2="1.15493" gradientUnits="userSpaceOnUse">
<stop stop-color="#00D2D8"/>
<stop offset="1" stop-color="#005CFF"/>
</linearGradient>
</defs>
</svg>
